HIERARCHY
ROOT Hips
{
  OFFSET 4.54636 93.7863 -4.11837
  CHANNELS 6 Xposition Yposition Zposition Zrotation Xrotation Yrotation
  JOINT LeftUpLeg
  {
    OFFSET 8.64259 1.95398 -2.38835
    CHANNELS 6 Xposition Yposition Zposition Zrotation Xrotation Yrotation
    JOINT LeftLeg
    {
      OFFSET 43.7702 0 0
      CHANNELS 6 Xposition Yposition Zposition Zrotation Xrotation Yrotation
      JOINT LeftFoot
      {
        OFFSET 40.6238 0 0
        CHANNELS 6 Xposition Yposition Zposition Zrotation Xrotation Yrotation
        JOINT LeftToeBase
        {
          OFFSET 12.7242 0 0
          CHANNELS 6 Xposition Yposition Zposition Zrotation Xrotation Yrotation
          End Site
          {
            OFFSET 0 0 0
          }
        }
      }
    }
  }
  JOINT RightUpLeg
  {
    OFFSET -8.2249 1.95398 -2.59336
    CHANNELS 6 Xposition Yposition Zposition Zrotation Xrotation Yrotation
    JOINT RightLeg
    {
      OFFSET 43.5653 0 0
      CHANNELS 6 Xposition Yposition Zposition Zrotation Xrotation Yrotation
      JOINT RightFoot
      {
        OFFSET 40.6238 0 0
        CHANNELS 6 Xposition Yposition Zposition Zrotation Xrotation Yrotation
        JOINT RightToeBase
        {
          OFFSET 12.7242 0 0
          CHANNELS 6 Xposition Yposition Zposition Zrotation Xrotation Yrotation
          End Site
          {
            OFFSET 0 0 0
          }
        }
      }
    }
  }
  JOINT Spine
  {
    OFFSET 0.165834 0.87714 6.61349
    CHANNELS 6 Xposition Yposition Zposition Zrotation Xrotation Yrotation
    JOINT Spine1
    {
      OFFSET 7.38963 1.71661e-005 0
      CHANNELS 6 Xposition Yposition Zposition Zrotation Xrotation Yrotation
      JOINT Spine2
      {
        OFFSET 11.9445 1.14441e-005 0
        CHANNELS 6 Xposition Yposition Zposition Zrotation Xrotation Yrotation
        JOINT Spine3
        {
          OFFSET 14.7254 4.19617e-005 0
          CHANNELS 6 Xposition Yposition Zposition Zrotation Xrotation Yrotation
          JOINT Spine4
          {
            OFFSET 10.9679 0 0
            CHANNELS 6 Xposition Yposition Zposition Zrotation Xrotation Yrotation
            JOINT RightShoulder
            {
              OFFSET 2.46616 -1.6653 3.69651
              CHANNELS 6 Xposition Yposition Zposition Zrotation Xrotation Yrotation
              JOINT RightArm
              {
                OFFSET 13.0012 0 0
                CHANNELS 6 Xposition Yposition Zposition Zrotation Xrotation Yrotation
                JOINT RightForeArm
                {
                  OFFSET 28.7848 1.52588e-005 0
                  CHANNELS 6 Xposition Yposition Zposition Zrotation Xrotation Yrotation
                  JOINT RightHand
                  {
                    OFFSET 26.5688 1.52588e-005 0
                    CHANNELS 6 Xposition Yposition Zposition Zrotation Xrotation Yrotation
                    JOINT RightHandMiddle1
                    {
                      OFFSET 8.03675 -0.886581 0.727868
                      CHANNELS 6 Xposition Yposition Zposition Zrotation Xrotation Yrotation
                      JOINT RightHandMiddle2
                      {
                        OFFSET 2.78833 0 0
                        CHANNELS 6 Xposition Yposition Zposition Zrotation Xrotation Yrotation
                        JOINT RightHandMiddle3
                        {
                          OFFSET 2.41155 0 0
                          CHANNELS 6 Xposition Yposition Zposition Zrotation Xrotation Yrotation
                          End Site
                          {
                            OFFSET 0 0 0
                          }
                        }
                      }
                    }
                    JOINT RightHandRing1
                    {
                      OFFSET 7.97966 -0.886765 -1.00486
                      CHANNELS 6 Xposition Yposition Zposition Zrotation Xrotation Yrotation
                      JOINT RightHandRing2
                      {
                        OFFSET 2.86368 0 0
                        CHANNELS 6 Xposition Yposition Zposition Zrotation Xrotation Yrotation
                        JOINT RightHandRing3
                        {
                          OFFSET 2.11079 0 0
                          CHANNELS 6 Xposition Yposition Zposition Zrotation Xrotation Yrotation
                          End Site
                          {
                            OFFSET 0 0 0
                          }
                        }
                      }
                    }
                    JOINT RightHandPinky1
                    {
                      OFFSET 8.03707 -0.887528 -2.60696
                      CHANNELS 6 Xposition Yposition Zposition Zrotation Xrotation Yrotation
                      JOINT RightHandPinky2
                      {
                        OFFSET 1.84627 0 0
                        CHANNELS 6 Xposition Yposition Zposition Zrotation Xrotation Yrotation
                        JOINT RightHandPinky3
                        {
                          OFFSET 1.88434 0 0
                          CHANNELS 6 Xposition Yposition Zposition Zrotation Xrotation Yrotation
                          End Site
                          {
                            OFFSET 0 0 0
                          }
                        }
                      }
                    }
                    JOINT RightHandIndex1
                    {
                      OFFSET 7.92262 -0.885498 2.31175
                      CHANNELS 6 Xposition Yposition Zposition Zrotation Xrotation Yrotation
                      JOINT RightHandIndex2
                      {
                        OFFSET 2.63761 0 0
                        CHANNELS 6 Xposition Yposition Zposition Zrotation Xrotation Yrotation
                        JOINT RightHandIndex3
                        {
                          OFFSET 2.16656 0 0
                          CHANNELS 6 Xposition Yposition Zposition Zrotation Xrotation Yrotation
                          End Site
                          {
                            OFFSET 0 0 0
                          }
                        }
                      }
                    }
                    JOINT RightHandThumb1
                    {
                      OFFSET 3.4769 0.0597992 2.88789
                      CHANNELS 6 Xposition Yposition Zposition Zrotation Xrotation Yrotation
                      JOINT RightHandThumb2
                      {
                        OFFSET 2.77686 9.72748e-005 -1.52588e-005
                        CHANNELS 6 Xposition Yposition Zposition Zrotation Xrotation Yrotation
                        JOINT RightHandThumb3
                        {
                          OFFSET 2.42058 -9.15528e-005 0
                          CHANNELS 6 Xposition Yposition Zposition Zrotation Xrotation Yrotation
                          End Site
                          {
                            OFFSET 0 0 0
                          }
                        }
                      }
                    }
                  }
                }
              }
            }
            JOINT LeftShoulder
            {
              OFFSET 2.38034 -1.29275 -3.7523
              CHANNELS 6 Xposition Yposition Zposition Zrotation Xrotation Yrotation
              JOINT LeftArm
              {
                OFFSET 16.3182 6.10352e-005 0
                CHANNELS 6 Xposition Yposition Zposition Zrotation Xrotation Yrotation
                JOINT LeftForeArm
                {
                  OFFSET 27.0901 0 0
                  CHANNELS 6 Xposition Yposition Zposition Zrotation Xrotation Yrotation
                  JOINT LeftHand
                  {
                    OFFSET 24.5451 1.52588e-005 0
                    CHANNELS 6 Xposition Yposition Zposition Zrotation Xrotation Yrotation
                    JOINT LeftHandMiddle1
                    {
                      OFFSET 9.21802 0.665817 0.545532
                      CHANNELS 6 Xposition Yposition Zposition Zrotation Xrotation Yrotation
                      JOINT LeftHandMiddle2
                      {
                        OFFSET 2.66255 0 0
                        CHANNELS 6 Xposition Yposition Zposition Zrotation Xrotation Yrotation
                        JOINT LeftHandMiddle3
                        {
                          OFFSET 2.2804 0 0
                          CHANNELS 6 Xposition Yposition Zposition Zrotation Xrotation Yrotation
                          End Site
                          {
                            OFFSET 0 0 0
                          }
                        }
                      }
                    }
                    JOINT LeftHandRing1
                    {
                      OFFSET 9.24775 0.665192 -1.1267
                      CHANNELS 6 Xposition Yposition Zposition Zrotation Xrotation Yrotation
                      JOINT LeftHandRing2
                      {
                        OFFSET 2.47041 0 -1.52588e-005
                        CHANNELS 6 Xposition Yposition Zposition Zrotation Xrotation Yrotation
                        JOINT LeftHandRing3
                        {
                          OFFSET 2.2054 0 0
                          CHANNELS 6 Xposition Yposition Zposition Zrotation Xrotation Yrotation
                          End Site
                          {
                            OFFSET 0 0 0
                          }
                        }
                      }
                    }
                    JOINT LeftHandPinky1
                    {
                      OFFSET 9.35384 0.66301 -2.72332
                      CHANNELS 6 Xposition Yposition Zposition Zrotation Xrotation Yrotation
                      JOINT LeftHandPinky2
                      {
                        OFFSET 1.63407 0 0
                        CHANNELS 6 Xposition Yposition Zposition Zrotation Xrotation Yrotation
                        JOINT LeftHandPinky3
                        {
                          OFFSET 1.71176 0 0
                          CHANNELS 6 Xposition Yposition Zposition Zrotation Xrotation Yrotation
                          End Site
                          {
                            OFFSET 0 0 0
                          }
                        }
                      }
                    }
                    JOINT LeftHandIndex1
                    {
                      OFFSET 8.73161 0.675903 2.06801
                      CHANNELS 6 Xposition Yposition Zposition Zrotation Xrotation Yrotation
                      JOINT LeftHandIndex2
                      {
                        OFFSET 2.66689 0 0
                        CHANNELS 6 Xposition Yposition Zposition Zrotation Xrotation Yrotation
                        JOINT LeftHandIndex3
                        {
                          OFFSET 2.12946 0 1.52588e-005
                          CHANNELS 6 Xposition Yposition Zposition Zrotation Xrotation Yrotation
                          End Site
                          {
                            OFFSET 0 0 0
                          }
                        }
                      }
                    }
                    JOINT LeftHandThumb1
                    {
                      OFFSET 4.96736 -0.62265 3.39586
                      CHANNELS 6 Xposition Yposition Zposition Zrotation Xrotation Yrotation
                      JOINT LeftHandThumb2
                      {
                        OFFSET 2.15386 1.52588e-005 0
                        CHANNELS 6 Xposition Yposition Zposition Zrotation Xrotation Yrotation
                        JOINT LeftHandThumb3
                        {
                          OFFSET 2.19511 -3.43323e-005 1.52588e-005
                          CHANNELS 6 Xposition Yposition Zposition Zrotation Xrotation Yrotation
                          End Site
                          {
                            OFFSET 0 0 0
                          }
                        }
                      }
                    }
                  }
                }
              }
            }
            JOINT Neck
            {
              OFFSET 5.0226 -0.0266342 0
              CHANNELS 6 Xposition Yposition Zposition Zrotation Xrotation Yrotation
              JOINT Head
              {
                OFFSET 6.69364 2.86102e-005 0
                CHANNELS 6 Xposition Yposition Zposition Zrotation Xrotation Yrotation
                End Site
                {
                  OFFSET 0 0 0
                }
              }
            }
          }
        }
      }
    }
  }
}
MOTION
Frames:	4
Frame Time:	0.0333333
99.8618 91.1214 -69.5913 -75.7825 36.3782 -88.5851 8.64259 1.95398 -2.38835 179.557 32.7179 96.3244 43.7702 7.03335e-006 0 -47.4866 5.05832 0.749037 40.6238 1.43051e-006 9.53674e-007 65.6186 3.08851 1.68205 12.7242 2.38419e-006 9.53674e-007 28.7808 3.66588e-006 1.6696e-006 -8.2249 1.95398 -2.59336 178.517 12.7294 85.0167 43.5653 7.27177e-006 2.84217e-014 -16.0831 40.6688 3.19952 40.6238 2.38419e-006 9.53674e-007 41.6697 11.5225 10.4707 12.7242 -4.76837e-007 -2.84217e-014 28.7808 1.65427e-005 2.61978e-005 0.165834 0.87714 6.61349 0.598945 6.09106 -92.1872 7.38963 1.71661e-005 -9.72809e-008 14.6704 0.0887456 -3.14653 11.9445 1.14441e-005 6.65395e-008 2.99592 -0.0497439 -3.14738 14.7254 4.19617e-005 8.195e-008 -19.5124 1.0298 -2.97474 10.9679 -9.53674e-006 5.82672e-008 0.500246 1.02979 -2.97475 2.46616 -1.6653 3.69651 111.624 -50.1977 -67.3464 13.0012 0 -7.10543e-015 -34.6246 45.3236 -22.5868 28.7848 1.52588e-005 -1.19209e-007 1.02556 59.3646 -7.71692 26.5688 1.52588e-005 4.76837e-007 -31.8184 17.615 -63.253 8.03675 -0.886581 0.727868 -89.4039 88.9709 89.0936 2.78833 2.38419e-007 2.84217e-014 -0.0604872 1.02386e-005 -7.42469e-007 2.41155 0 1.42109e-014 -0.0639202 -1.04139e-005 -5.3626e-007 7.97966 -0.886765 -1.00486 -89.3948 88.981 89.0846 2.86368 0 -1.42109e-014 -1.15742 -1.0306e-005 1.0542e-007 2.11079 0 -1.42109e-014 2.576 3.28377e-006 -1.07887e-006 8.03707 -0.887528 -2.60696 -88.8559 89.3579 88.5457 1.84627 0 0 -1.14578 6.70875e-006 0.000163849 1.88434 0 0 1.14577 3.34429e-006 -7.15275e-007 7.92262 -0.885498 2.31175 -89.4226 88.9487 89.1123 2.63761 4.76837e-007 0 0.409286 3.03194e-006 0.000614572 2.16656 -2.38419e-007 0 -0.636601 -1.03373e-005 2.59917e-009 3.4769 0.0597992 2.88789 104.364 40.5023 -88.8246 2.77686 9.72748e-005 -1.52588e-005 -7.66903 0.186167 -1.35044 2.42058 -9.15528e-005 -1.42109e-014 -11.2634 8.91552e-006 7.05192e-005 2.38034 -1.29275 -3.7523 -77.954 -21.8755 96.6332 16.3182 6.10352e-005 1.19209e-007 13.1711 -30.881 20.6382 27.0901 -2.84217e-014 0 84.4157 50.7509 -86.9335 24.5451 1.52588e-005 2.84217e-014 -15.0335 0.447671 -9.18996 9.21802 0.665817 0.545532 -91.1873 -87.8289 -89.9988 2.66255 0 -8.88178e-015 3.40888 1.59988e-005 0.0036011 2.2804 0 -7.10543e-015 -0.954861 -5.32817e-006 1.29074e-006 9.24775 0.665192 -1.1267 -91.1871 -89.4015 -89.9985 2.47041 -4.76837e-007 -1.52588e-005 2.85637 -2.2568e-006 0.00271613 2.2054 -2.84217e-014 3.55271e-015 -3.16844 9.52776e-006 6.84112e-007 9.35384 0.66301 -2.72332 88.8084 -89.717 89.9969 1.63407 -4.76837e-007 5.32907e-015 2.54481 -5.54176e-006 0.00273879 1.71176 2.84217e-014 -8.88178e-015 -2.54482 9.54577e-006 1.17571e-006 8.73161 0.675903 2.06801 -91.1884 -86.1973 -89.9999 2.66689 -9.53674e-007 -7.10543e-015 6.13104 5.64109e-006 0.00674487 2.12946 1.04308e-007 1.52588e-005 -2.04542 4.73982e-007 -5.14194e-007 4.96736 -0.62265 3.39586 -101.949 -40.7242 -90.0694 2.15386 1.52588e-005 5.32907e-015 10.0172 3.04845e-005 1.17425e-006 2.19511 -3.43323e-005 1.52588e-005 -2.66977 -8.39195e-006 2.11148e-006 5.0226 -0.0266342 -9.09495e-013 59.4788 -8.96856 6.47063 6.69364 2.86102e-005 -1.09447e-007 -39.5468 -20.2884 21.5648 
99.6246 91.5504 -71.3168 -76.5044 29.0824 -86.9904 8.64259 1.95398 -2.38835 179.836 34.6669 94.3214 43.7702 7.03335e-006 -1.42109e-014 -43.5227 0.2759 0.412651 40.6238 1.43051e-006 9.53674e-007 65.044 -1.23897 -0.720846 12.7242 2.38419e-006 9.53674e-007 28.7808 3.66588e-006 1.6696e-006 -8.2249 1.95398 -2.59336 178.956 7.98264 86.3261 43.5653 7.27177e-006 2.84217e-014 -13.3819 47.3447 4.14925 40.6238 2.38419e-006 9.53674e-007 40.6775 12.6359 11.6081 12.7242 -4.76837e-007 0 28.7808 1.65427e-005 2.61978e-005 0.165834 0.87714 6.61349 0.888532 6.14505 -92.2971 7.38963 1.71661e-005 -9.72809e-008 14.5621 0.587817 -3.49042 11.9445 1.14441e-005 6.65395e-008 2.88646 0.433552 -3.51297 14.7254 4.19617e-005 8.195e-008 -19.6176 1.61033 -3.15227 10.9679 -9.53674e-006 5.82672e-008 0.39499 1.6103 -3.15228 2.46616 -1.6653 3.69651 109.52 -49.2076 -70.4511 13.0012 0 0 -35.9533 48.7819 -27.7184 28.7848 1.52588e-005 -1.19209e-007 1.15946 60.1022 -7.83612 26.5688 1.52588e-005 4.76837e-007 -32.6775 19.3622 -66.4604 8.03675 -0.886581 0.727868 -89.4039 88.9709 89.0936 2.78833 2.38419e-007 0 -0.0604872 1.02386e-005 -7.42469e-007 2.41155 -1.42109e-014 0 -0.0639202 -1.04139e-005 -5.3626e-007 7.97966 -0.886765 -1.00486 -89.3948 88.981 89.0846 2.86368 1.42109e-014 -1.42109e-014 -1.15742 -1.0306e-005 1.0542e-007 2.11079 -2.84217e-014 -1.42109e-014 2.576 3.28377e-006 -1.07887e-006 8.03707 -0.887528 -2.60696 -88.8559 89.3579 88.5457 1.84627 0 -1.42109e-014 -1.14578 6.70875e-006 0.000163849 1.88434 2.84217e-014 0 1.14577 3.34429e-006 -7.15275e-007 7.92262 -0.885498 2.31175 -89.4226 88.9487 89.1123 2.63761 4.76837e-007 0 0.409286 3.03194e-006 0.000614572 2.16656 -2.38419e-007 0 -0.636601 -1.03373e-005 2.59917e-009 3.4769 0.0597992 2.88789 104.364 40.5023 -88.8246 2.77686 9.72748e-005 -1.52588e-005 -7.66903 0.186167 -1.35044 2.42058 -9.15528e-005 0 -11.2634 8.91552e-006 7.05192e-005 2.38034 -1.29275 -3.7523 -76.3083 -22.977 100.265 16.3182 6.10352e-005 1.19209e-007 14.0385 -30.543 23.8636 27.0901 0 0 95.2362 50.0315 -95.4322 24.5451 1.52588e-005 0 -18.2619 1.53861 -16.0149 9.21802 0.665817 0.545532 -91.1873 -87.8289 -89.9988 2.66255 0 -3.55271e-015 3.40888 1.59988e-005 0.0036011 2.2804 -2.84217e-014 -3.55271e-015 -0.954861 -5.32817e-006 1.29074e-006 9.24775 0.665192 -1.1267 -91.1871 -89.4015 -89.9985 2.47041 -4.76837e-007 -1.52588e-005 2.85637 -2.2568e-006 0.00271613 2.2054 -2.84217e-014 3.55271e-015 -3.16844 9.52776e-006 6.84112e-007 9.35384 0.66301 -2.72332 88.8084 -89.717 89.9969 1.63407 -4.76837e-007 -7.10543e-015 2.54481 -5.54176e-006 0.00273879 1.71176 0 -3.55271e-015 -2.54482 9.54577e-006 1.17571e-006 8.73161 0.675903 2.06801 -91.1884 -86.1973 -89.9999 2.66689 -9.53674e-007 -1.06581e-014 6.13104 5.64109e-006 0.00674487 2.12946 1.04308e-007 1.52588e-005 -2.04542 4.73982e-007 -5.14194e-007 4.96736 -0.62265 3.39586 -101.949 -40.7242 -90.0694 2.15386 1.52588e-005 7.10543e-015 10.0172 3.04845e-005 1.17425e-006 2.19511 -3.43323e-005 1.52588e-005 -2.66977 -8.39195e-006 2.11148e-006 5.0226 -0.0266342 -9.09495e-013 60.2891 -9.02184 4.58278 6.69364 2.86102e-005 -1.09447e-007 -38.5167 -19.3654 22.9096 
98.6915 91.9363 -72.8431 -77.2582 19.8641 -85.7261 8.64259 1.95398 -2.38835 -179.775 35.3017 90.7439 43.7702 7.03335e-006 0 -38.0186 -10.8685 -0.321574 40.6238 1.43051e-006 9.53674e-007 60.8683 -4.65051 -2.91415 12.7242 2.38419e-006 9.53674e-007 28.7808 3.66588e-006 1.6696e-006 -8.2249 1.95398 -2.59336 179.758 6.11445 87.1987 43.5653 7.27177e-006 0 -18.3115 54.4344 5.46719 40.6238 2.38419e-006 9.53674e-007 38.8543 16.5506 15.5582 12.7242 -4.76837e-007 -2.84217e-014 28.7808 1.65427e-005 2.61978e-005 0.165834 0.87714 6.61349 0.945648 6.11054 -92.2033 7.38963 1.71661e-005 -9.72809e-008 14.6329 0.712474 -3.53496 11.9445 1.14441e-005 6.65395e-008 2.95727 0.556272 -3.56285 14.7254 4.19617e-005 8.195e-008 -19.5472 1.74141 -3.15816 10.9679 -9.53674e-006 5.82672e-008 0.465485 1.7414 -3.15818 2.46616 -1.6653 3.69651 106.767 -49.9059 -74.8241 13.0012 -2.84217e-014 0 -38.7813 53.5006 -33.1328 28.7848 1.52588e-005 -1.19209e-007 3.54524 69.3358 -10.0383 26.5688 1.52588e-005 4.76837e-007 -40.7438 27.417 -72.2783 8.03675 -0.886581 0.727868 -89.4039 88.9709 89.0936 2.78833 2.38419e-007 0 -0.0604872 1.02386e-005 -7.42469e-007 2.41155 0 -2.84217e-014 -0.0639202 -1.04139e-005 -5.3626e-007 7.97966 -0.886765 -1.00486 -89.3948 88.981 89.0846 2.86368 0 0 -1.15742 -1.0306e-005 1.0542e-007 2.11079 0 2.84217e-014 2.576 3.28377e-006 -1.07887e-006 8.03707 -0.887528 -2.60696 -88.8559 89.3579 88.5457 1.84627 2.84217e-014 2.84217e-014 -1.14578 6.70875e-006 0.000163849 1.88434 -1.42109e-014 0 1.14577 3.34429e-006 -7.15275e-007 7.92262 -0.885498 2.31175 -89.4226 88.9487 89.1123 2.63761 4.76837e-007 0 0.409286 3.03194e-006 0.000614572 2.16656 -2.38419e-007 0 -0.636601 -1.03373e-005 2.59917e-009 3.4769 0.0597992 2.88789 104.364 40.5023 -88.8246 2.77686 9.72748e-005 -1.52588e-005 -7.66903 0.186167 -1.35044 2.42058 -9.15528e-005 -1.42109e-014 -11.2634 8.91552e-006 7.05192e-005 2.38034 -1.29275 -3.7523 -75.3447 -24.2557 102.292 16.3182 6.10352e-005 1.19209e-007 14.5734 -29.8818 28.6778 27.0901 2.84217e-014 1.42109e-014 98.5959 47.8532 -97.8758 24.5451 1.52588e-005 0 -21.6461 2.30045 -18.543 9.21802 0.665817 0.545532 -91.1873 -87.8289 -89.9988 2.66255 0 -1.42109e-014 3.40888 1.59988e-005 0.0036011 2.2804 0 0 -0.954861 -5.32817e-006 1.29074e-006 9.24775 0.665192 -1.1267 -91.1871 -89.4015 -89.9985 2.47041 -4.76837e-007 -1.52588e-005 2.85637 -2.2568e-006 0.00271613 2.2054 0 -7.10543e-015 -3.16844 9.52776e-006 6.84112e-007 9.35384 0.66301 -2.72332 88.8084 -89.717 89.9969 1.63407 -4.76837e-007 -2.13163e-014 2.54481 -5.54176e-006 0.00273879 1.71176 0 -7.10543e-015 -2.54482 9.54577e-006 1.17571e-006 8.73161 0.675903 2.06801 -91.1884 -86.1973 -89.9999 2.66689 -9.53674e-007 7.10543e-015 6.13104 5.64109e-006 0.00674487 2.12946 1.04308e-007 1.52588e-005 -2.04542 4.73982e-007 -5.14194e-007 4.96736 -0.62265 3.39586 -101.949 -40.7242 -90.0694 2.15386 1.52588e-005 -1.42109e-014 10.0172 3.04845e-005 1.17425e-006 2.19511 -3.43323e-005 1.52588e-005 -2.66977 -8.39195e-006 2.11148e-006 5.0226 -0.0266342 -9.09495e-013 58.8118 -10.2619 2.1071 6.69364 2.86102e-005 -1.09447e-007 -37.0349 -18.668 23.863 
97.2504 92.2911 -73.8612 -77.3651 11.6286 -84.726 8.64259 1.95398 -2.38835 -179.99 33.4637 87.2075 43.7702 7.03335e-006 0 -29.9133 -29.8161 -1.81373 40.6238 1.43051e-006 9.53674e-007 52.0135 -0.026774 -0.425037 12.7242 2.38419e-006 9.53674e-007 28.7808 3.66588e-006 1.6696e-006 -8.2249 1.95398 -2.59336 -179.548 4.75199 87.9632 43.5653 7.27177e-006 0 -22.5811 57.3929 6.11846 40.6238 2.38419e-006 9.53674e-007 33.2758 20.7578 21.4161 12.7242 -4.76837e-007 2.84217e-014 28.7808 1.65427e-005 2.61978e-005 0.165834 0.87714 6.61349 1.17581 5.94088 -92.0397 7.38963 1.71661e-005 -9.72809e-008 14.9852 1.20865 -3.71691 11.9445 1.14441e-005 6.65395e-008 3.30934 1.04398 -3.7664 14.7254 4.19617e-005 8.195e-008 -19.1971 2.2693 -3.18131 10.9679 -9.53674e-006 5.82672e-008 0.81554 2.26931 -3.18132 2.46616 -1.6653 3.69651 103.821 -49.9044 -79.4088 13.0012 0 1.42109e-014 -35.1166 49.5867 -29.6117 28.7848 1.52588e-005 -1.19209e-007 -1.73901 28.3435 -5.85608 26.5688 1.52588e-005 4.76837e-007 -37.7023 19.2752 -58.9909 8.03675 -0.886581 0.727868 -89.4039 88.9709 89.0936 2.78833 2.38419e-007 2.13163e-014 -0.0604872 1.02386e-005 -7.42469e-007 2.41155 0 -7.10543e-015 -0.0639202 -1.04139e-005 -5.3626e-007 7.97966 -0.886765 -1.00486 -89.3948 88.981 89.0846 2.86368 0 -1.42109e-014 -1.15742 -1.0306e-005 1.0542e-007 2.11079 0 1.42109e-014 2.576 3.28377e-006 -1.07887e-006 8.03707 -0.887528 -2.60696 -88.8559 89.3579 88.5457 1.84627 0 -7.10543e-015 -1.14578 6.70875e-006 0.000163849 1.88434 2.84217e-014 0 1.14577 3.34429e-006 -7.15275e-007 7.92262 -0.885498 2.31175 -89.4226 88.9487 89.1123 2.63761 4.76837e-007 -7.10543e-015 0.409286 3.03194e-006 0.000614572 2.16656 -2.38419e-007 -1.42109e-014 -0.636601 -1.03373e-005 2.59918e-009 3.4769 0.0597992 2.88789 104.364 40.5023 -88.8246 2.77686 9.72748e-005 -1.52588e-005 -7.66903 0.186167 -1.35044 2.42058 -9.15528e-005 0 -11.2634 8.91552e-006 7.05192e-005 2.38034 -1.29275 -3.7523 -74.6689 -26.9904 103.47 16.3182 6.10352e-005 1.19209e-007 16.2715 -28.3053 31.9815 27.0901 2.84217e-014 0 109.286 50.1875 -106.606 24.5451 1.52588e-005 2.84217e-014 -15.3654 1.8647 -21.6315 9.21802 0.665817 0.545532 -91.1873 -87.8289 -89.9988 2.66255 0 0 3.40888 1.59988e-005 0.0036011 2.2804 -2.84217e-014 0 -0.954861 -5.32817e-006 1.29074e-006 9.24775 0.665192 -1.1267 -91.1871 -89.4015 -89.9985 2.47041 -4.76837e-007 -1.52588e-005 2.85637 -2.2568e-006 0.00271613 2.2054 2.84217e-014 -1.42109e-014 -3.16844 9.52776e-006 6.84112e-007 9.35384 0.66301 -2.72332 88.8084 -89.717 89.9969 1.63407 -4.76837e-007 0 2.54481 -5.54176e-006 0.00273879 1.71176 -2.84217e-014 0 -2.54482 9.54577e-006 1.17571e-006 8.73161 0.675903 2.06801 -91.1884 -86.1973 -89.9999 2.66689 -9.53674e-007 -1.42109e-014 6.13104 5.64109e-006 0.00674487 2.12946 1.04308e-007 1.52588e-005 -2.04542 4.73982e-007 -5.14194e-007 4.96736 -0.62265 3.39586 -101.949 -40.7242 -90.0694 2.15386 1.52588e-005 0 10.0172 3.04845e-005 1.17425e-006 2.19511 -3.43323e-005 1.52588e-005 -2.66977 -8.39195e-006 2.11148e-006 5.0226 -0.0266342 -9.166e-013 57.5416 -10.0429 4.28683 6.69364 2.86102e-005 -1.09447e-007 -38.1863 -19.2462 21.1742 
